<?xml version="1.0" encoding="UTF-8" standalone="no"?>
<!DOCTYPE svg PUBLIC "-//W3C//DTD SVG 1.1//EN"
 "http://www.w3.org/Graphics/SVG/1.1/DTD/svg11.dtd">
<!-- Generated by graphviz version 2.43.0 (0)
 -->
<!-- Title: CafeOps Pages: 1 -->
<svg width="1690pt" height="437pt"
 viewBox="0.00 0.00 1690.38 437.00" xmlns="http://www.w3.org/2000/svg" xmlns:xlink="http://www.w3.org/1999/xlink">
<g id="graph0" class="graph" transform="scale(1 1) rotate(0) translate(4 433)">
<title>CafeOps</title>
<polygon fill="white" stroke="transparent" points="-4,4 -4,-433 1686.38,-433 1686.38,4 -4,4"/>
<text text-anchor="middle" x="841.19" y="-405.8" font-family="Inter, Helvetica, Arial" font-size="24.00">CafeOps — Serverless on LocalStack (Public&#45;Facing)</text>
<g id="clust1" class="cluster">
<title>cluster_legend</title>
<path fill="white" stroke="#e5e7eb" d="M20,-110C20,-110 227,-110 227,-110 233,-110 239,-116 239,-122 239,-122 239,-227 239,-227 239,-233 233,-239 227,-239 227,-239 20,-239 20,-239 14,-239 8,-233 8,-227 8,-227 8,-122 8,-122 8,-116 14,-110 20,-110"/>
<text text-anchor="middle" x="123.5" y="-223.8" font-family="Inter, Helvetica, Arial" font-size="14.00">Legend</text>
</g>
<g id="clust2" class="cluster">
<title>cluster_dev</title>
<path fill="white" stroke="#e5e7eb" d="M49.72,-247C49.72,-247 197.28,-247 197.28,-247 203.28,-247 209.28,-253 209.28,-259 209.28,-259 209.28,-325 209.28,-325 209.28,-331 203.28,-337 197.28,-337 197.28,-337 49.72,-337 49.72,-337 43.72,-337 37.72,-331 37.72,-325 37.72,-325 37.72,-259 37.72,-259 37.72,-253 43.72,-247 49.72,-247"/>
<text text-anchor="middle" x="123.5" y="-320.2" font-family="Inter, Helvetica, Arial" font-size="16.00">Developer &amp; Source</text>
</g>
<g id="clust3" class="cluster">
<title>cluster_iac</title>
<path fill="white" stroke="#e5e7eb" d="M706.19,-309C706.19,-309 834.19,-309 834.19,-309 840.19,-309 846.19,-315 846.19,-321 846.19,-321 846.19,-375 846.19,-375 846.19,-381 840.19,-387 834.19,-387 834.19,-387 706.19,-387 706.19,-387 700.19,-387 694.19,-381 694.19,-375 694.19,-375 694.19,-321 694.19,-321 694.19,-315 700.19,-309 706.19,-309"/>
<text text-anchor="middle" x="770.19" y="-370.2" font-family="Inter, Helvetica, Arial" font-size="16.00">IaC &amp; Tooling</text>
</g>
<g id="clust4" class="cluster">
<title>cluster_localstack</title>
<path fill="white" stroke="#e5e7eb" d="M1218.38,-155C1218.38,-155 1662.38,-155 1662.38,-155 1668.38,-155 1674.38,-161 1674.38,-167 1674.38,-167 1674.38,-263 1674.38,-263 1674.38,-269 1668.38,-275 1662.38,-275 1662.38,-275 1218.38,-275 1218.38,-275 1212.38,-275 1206.38,-269 1206.38,-263 1206.38,-263 1206.38,-167 1206.38,-167 1206.38,-161 1212.38,-155 1218.38,-155"/>
<text text-anchor="middle" x="1440.38" y="-258.2" font-family="Inter, Helvetica, Arial" font-size="16.00">LocalStack — AWS Emulation</text>
</g>
<g id="clust5" class="cluster">
<title>cluster_obs</title>
<path fill="white" stroke="#f3f4f6" d="M1226.38,-163C1226.38,-163 1654.38,-163 1654.38,-163 1660.38,-163 1666.38,-169 1666.38,-175 1666.38,-175 1666.38,-229 1666.38,-229 1666.38,-235 1660.38,-241 1654.38,-241 1654.38,-241 1226.38,-241 1226.38,-241 1220.38,-241 1214.38,-235 1214.38,-229 1214.38,-229 1214.38,-175 1214.38,-175 1214.38,-169 1220.38,-163 1226.38,-163"/>
<text text-anchor="middle" x="1440.38" y="-224.2" font-family="Inter, Helvetica, Arial" font-size="16.00">Observability (optional)</text>
</g>
<g id="clust6" class="cluster">
<title>cluster_client</title>
<path fill="white" stroke="#e5e7eb" d="M664,-223C664,-223 876.38,-223 876.38,-223 882.38,-223 888.38,-229 888.38,-235 888.38,-235 888.38,-289 888.38,-289 888.38,-295 882.38,-301 876.38,-301 876.38,-301 664,-301 664,-301 658,-301 652,-295 652,-289 652,-289 652,-235 652,-235 652,-229 658,-223 664,-223"/>
<text text-anchor="middle" x="770.19" y="-284.2" font-family="Inter, Helvetica, Arial" font-size="16.00">Client / Consumer</text>
</g>
<!-- leg1 -->
<g id="node1" class="node">
<title>leg1</title>
<path fill="#f7f7fb" stroke="#bfc3d9" d="M215,-208C215,-208 32,-208 32,-208 26,-208 20,-202 20,-196 20,-196 20,-184 20,-184 20,-178 26,-172 32,-172 32,-172 215,-172 215,-172 221,-172 227,-178 227,-184 227,-184 227,-196 227,-196 227,-202 221,-208 215,-208"/>
<text text-anchor="middle" x="123.5" y="-186.9" font-family="Inter, Helvetica, Arial" font-size="12.00">Solid edge: request/CI/CD/data flow</text>
</g>
<!-- leg2 -->
<g id="node2" class="node">
<title>leg2</title>
<path fill="#f7f7fb" stroke="#bfc3d9" d="M219,-154C219,-154 28,-154 28,-154 22,-154 16,-148 16,-142 16,-142 16,-130 16,-130 16,-124 22,-118 28,-118 28,-118 219,-118 219,-118 225,-118 231,-124 231,-130 231,-130 231,-142 231,-142 231,-148 225,-154 219,-154"/>
<text text-anchor="middle" x="123.5" y="-132.9" font-family="Inter, Helvetica, Arial" font-size="12.00">Dotted edge: logs/metrics/test signals</text>
</g>
<!-- Dev -->
<g id="node3" class="node">
<title>Dev</title>
<ellipse fill="#eef2ff" stroke="#bfc3d9" cx="123.5" cy="-279" rx="77.56" ry="24.08"/>
<text text-anchor="middle" x="123.5" y="-282.4" font-family="Inter, Helvetica, Arial" font-size="12.00">Developer</text>
<text text-anchor="middle" x="123.5" y="-269.4" font-family="Inter, Helvetica, Arial" font-size="12.00">(local code, tests)</text>
</g>
<!-- GitHub -->
<g id="node4" class="node">
<title>GitHub</title>
<path fill="#f7f7fb" stroke="#bfc3d9" d="M506,-302.5C506,-302.5 376,-302.5 376,-302.5 370,-302.5 364,-296.5 364,-290.5 364,-290.5 364,-267.5 364,-267.5 364,-261.5 370,-255.5 376,-255.5 376,-255.5 506,-255.5 506,-255.5 512,-255.5 518,-261.5 518,-267.5 518,-267.5 518,-290.5 518,-290.5 518,-296.5 512,-302.5 506,-302.5"/>
<text text-anchor="middle" x="441" y="-288.9" font-family="Inter, Helvetica, Arial" font-size="12.00">GitHub Repo</text>
<text text-anchor="middle" x="441" y="-275.9" font-family="Inter, Helvetica, Arial" font-size="12.00">(dj&#45;3dub/CafeOps)</text>
<text text-anchor="middle" x="441" y="-262.9" font-family="Inter, Helvetica, Arial" font-size="12.00">• Issues • PRs • Releases</text>
</g>
<!-- Dev&#45;&gt;GitHub -->
<g id="edge1" class="edge">
<title>Dev&#45;&gt;GitHub</title>
<path fill="none" stroke="#6b7280" d="M201.68,-279C247.65,-279 306.11,-279 353.62,-279"/>
<polygon fill="#6b7280" stroke="#6b7280" points="353.89,-282.5 363.89,-279 353.89,-275.5 353.89,-282.5"/>
<text text-anchor="middle" x="286" y="-282" font-family="Inter, Helvetica, Arial" font-size="10.00">push PR/commit</text>
</g>
<!-- Actions -->
<g id="node5" class="node">
<title>Actions</title>
<path fill="#f7f7fb" stroke="#bfc3d9" d="M529,-220C529,-220 353,-220 353,-220 347,-220 341,-214 341,-208 341,-208 341,-196 341,-196 341,-190 347,-184 353,-184 353,-184 529,-184 529,-184 535,-184 541,-190 541,-196 541,-196 541,-208 541,-208 541,-214 535,-220 529,-220"/>
<text text-anchor="middle" x="441" y="-205.4" font-family="Inter, Helvetica, Arial" font-size="12.00">GitHub Actions</text>
<text text-anchor="middle" x="441" y="-192.4" font-family="Inter, Helvetica, Arial" font-size="12.00">(CI/CD: fmt • validate • test • apply)</text>
</g>
<!-- GitHub&#45;&gt;Actions -->
<g id="edge2" class="edge">
<title>GitHub&#45;&gt;Actions</title>
<path fill="none" stroke="#6b7280" d="M441,-255.34C441,-247.49 441,-238.66 441,-230.49"/>
<polygon fill="#6b7280" stroke="#6b7280" points="444.5,-230.25 441,-220.25 437.5,-230.25 444.5,-230.25"/>
<text text-anchor="middle" x="432.5" y="-235.25" font-family="Inter, Helvetica, Arial" font-size="10.00">trigger workflow</text>
</g>
<!-- Terraform -->
<g id="node6" class="node">
<title>Terraform</title>
<path fill="#f7f7fb" stroke="#bfc3d9" d="M494,-136C494,-136 388,-136 388,-136 382,-136 376,-130 376,-124 376,-124 376,-112 376,-112 376,-106 382,-100 388,-100 388,-100 494,-100 494,-100 500,-100 506,-106 506,-112 506,-112 506,-124 506,-124 506,-130 500,-136 494,-136"/>
<text text-anchor="middle" x="441" y="-121.4" font-family="Inter, Helvetica, Arial" font-size="12.00">Terraform</text>
<text text-anchor="middle" x="441" y="-108.4" font-family="Inter, Helvetica, Arial" font-size="12.00">(modules, state local)</text>
</g>
<!-- Actions&#45;&gt;Terraform -->
<g id="edge3" class="edge">
<title>Actions&#45;&gt;Terraform</title>
<path fill="none" stroke="#6b7280" d="M441,-183.81C441,-172.92 441,-158.84 441,-146.5"/>
<polygon fill="#6b7280" stroke="#6b7280" points="444.5,-146.23 441,-136.23 437.5,-146.23 444.5,-146.23"/>
<text text-anchor="middle" x="432.5" y="-157.5" font-family="Inter, Helvetica, Arial" font-size="10.00">fmt/validate/plan/apply</text>
</g>
<!-- Smoke -->
<g id="node7" class="node">
<title>Smoke</title>
<path fill="#f7f7fb" stroke="#bfc3d9" d="M826.19,-353C826.19,-353 714.19,-353 714.19,-353 708.19,-353 702.19,-347 702.19,-341 702.19,-341 702.19,-329 702.19,-329 702.19,-323 708.19,-317 714.19,-317 714.19,-317 826.19,-317 826.19,-317 832.19,-317 838.19,-323 838.19,-329 838.19,-329 838.19,-341 838.19,-341 838.19,-347 832.19,-353 826.19,-353"/>
<text text-anchor="middle" x="770.19" y="-338.4" font-family="Inter, Helvetica, Arial" font-size="12.00">Smoke Tests</text>
<text text-anchor="middle" x="770.19" y="-325.4" font-family="Inter, Helvetica, Arial" font-size="12.00">(automated endpoints)</text>
</g>
<!-- Actions&#45;&gt;Smoke -->
<g id="edge12" class="edge">
<title>Actions&#45;&gt;Smoke</title>
<path fill="none" stroke="#6b7280" d="M483.18,-220.11C501.05,-228.13 522.17,-237.81 541,-247 591.02,-271.41 600.03,-285.08 652,-305 664.78,-309.9 678.65,-314.25 692.23,-318.01"/>
<polygon fill="#6b7280" stroke="#6b7280" points="691.47,-321.43 702.04,-320.65 693.29,-314.67 691.47,-321.43"/>
<text text-anchor="middle" x="600.5" y="-303" font-family="Inter, Helvetica, Arial" font-size="10.00">post&#45;deploy smoke</text>
</g>
<!-- S3 -->
<g id="node11" class="node">
<title>S3</title>
<path fill="#f7f7fb" stroke="#bfc3d9" d="M1112.38,-94C1112.38,-94 999.38,-94 999.38,-94 993.38,-94 987.38,-88 987.38,-82 987.38,-82 987.38,-70 987.38,-70 987.38,-64 993.38,-58 999.38,-58 999.38,-58 1112.38,-58 1112.38,-58 1118.38,-58 1124.38,-64 1124.38,-70 1124.38,-70 1124.38,-82 1124.38,-82 1124.38,-88 1118.38,-94 1112.38,-94"/>
<text text-anchor="middle" x="1055.88" y="-79.4" font-family="Inter, Helvetica, Arial" font-size="12.00">S3 Buckets</text>
<text text-anchor="middle" x="1055.88" y="-66.4" font-family="Inter, Helvetica, Arial" font-size="12.00">(static assets, artifacts)</text>
</g>
<!-- Actions&#45;&gt;S3 -->
<g id="edge17" class="edge">
<title>Actions&#45;&gt;S3</title>
<path fill="none" stroke="#6b7280" d="M541.01,-184.22C647.27,-164.74 820.81,-131.73 969.38,-98 972.02,-97.4 974.71,-96.78 977.41,-96.14"/>
<polygon fill="#6b7280" stroke="#6b7280" points="978.39,-99.51 987.29,-93.77 976.75,-92.7 978.39,-99.51"/>
<text text-anchor="middle" x="770.19" y="-166" font-family="Inter, Helvetica, Arial" font-size="10.00">publish artifacts (optional)</text>
</g>
<!-- APIGW -->
<g id="node8" class="node">
<title>APIGW</title>
<path fill="#f7f7fb" stroke="#bfc3d9" d="M1086.88,-238C1086.88,-238 1024.88,-238 1024.88,-238 1018.88,-238 1012.88,-232 1012.88,-226 1012.88,-226 1012.88,-214 1012.88,-214 1012.88,-208 1018.88,-202 1024.88,-202 1024.88,-202 1086.88,-202 1086.88,-202 1092.88,-202 1098.88,-208 1098.88,-214 1098.88,-214 1098.88,-226 1098.88,-226 1098.88,-232 1092.88,-238 1086.88,-238"/>
<text text-anchor="middle" x="1055.88" y="-216.9" font-family="Inter, Helvetica, Arial" font-size="12.00">API Gateway</text>
</g>
<!-- Terraform&#45;&gt;APIGW -->
<g id="edge4" class="edge">
<title>Terraform&#45;&gt;APIGW</title>
<path fill="none" stroke="#6b7280" d="M506.29,-129.49C523.4,-132.42 541.88,-135.45 559,-138 704.96,-159.77 743.22,-153.39 888.38,-180 927.07,-187.09 970.24,-197.54 1002.93,-205.98"/>
<polygon fill="#6b7280" stroke="#6b7280" points="1002.16,-209.39 1012.72,-208.53 1003.93,-202.62 1002.16,-209.39"/>
</g>
<!-- Lambda -->
<g id="node9" class="node">
<title>Lambda</title>
<path fill="#f7f7fb" stroke="#bfc3d9" d="M1101.88,-166C1101.88,-166 1009.88,-166 1009.88,-166 1003.88,-166 997.88,-160 997.88,-154 997.88,-154 997.88,-142 997.88,-142 997.88,-136 1003.88,-130 1009.88,-130 1009.88,-130 1101.88,-130 1101.88,-130 1107.88,-130 1113.88,-136 1113.88,-142 1113.88,-142 1113.88,-154 1113.88,-154 1113.88,-160 1107.88,-166 1101.88,-166"/>
<text text-anchor="middle" x="1055.88" y="-151.4" font-family="Inter, Helvetica, Arial" font-size="12.00">Lambda Functions</text>
<text text-anchor="middle" x="1055.88" y="-138.4" font-family="Inter, Helvetica, Arial" font-size="12.00">(handlers)</text>
</g>
<!-- Terraform&#45;&gt;Lambda -->
<g id="edge5" class="edge">
<title>Terraform&#45;&gt;Lambda</title>
<path fill="none" stroke="#6b7280" d="M506.16,-120.41C605.47,-124.26 802.39,-132.34 969.38,-142 975.28,-142.34 981.41,-142.72 987.55,-143.12"/>
<polygon fill="#6b7280" stroke="#6b7280" points="987.65,-146.63 997.86,-143.8 988.12,-139.65 987.65,-146.63"/>
</g>
<!-- DynamoDB -->
<g id="node10" class="node">
<title>DynamoDB</title>
<path fill="#f7f7fb" stroke="#bfc3d9" d="M1083.38,-36C1083.38,-36 1028.38,-36 1028.38,-36 1022.38,-36 1016.38,-30 1016.38,-24 1016.38,-24 1016.38,-12 1016.38,-12 1016.38,-6 1022.38,0 1028.38,0 1028.38,0 1083.38,0 1083.38,0 1089.38,0 1095.38,-6 1095.38,-12 1095.38,-12 1095.38,-24 1095.38,-24 1095.38,-30 1089.38,-36 1083.38,-36"/>
<text text-anchor="middle" x="1055.88" y="-21.4" font-family="Inter, Helvetica, Arial" font-size="12.00">DynamoDB</text>
<text text-anchor="middle" x="1055.88" y="-8.4" font-family="Inter, Helvetica, Arial" font-size="12.00">(tables)</text>
</g>
<!-- Terraform&#45;&gt;DynamoDB -->
<g id="edge6" class="edge">
<title>Terraform&#45;&gt;DynamoDB</title>
<path fill="none" stroke="#6b7280" d="M506.32,-107.19C547.88,-100.23 603.12,-91.02 652,-83 779.71,-62.06 930.28,-37.91 1006.07,-25.79"/>
<polygon fill="#6b7280" stroke="#6b7280" points="1006.94,-29.2 1016.26,-24.16 1005.83,-22.28 1006.94,-29.2"/>
</g>
<!-- Terraform&#45;&gt;S3 -->
<g id="edge7" class="edge">
<title>Terraform&#45;&gt;S3</title>
<path fill="none" stroke="#6b7280" d="M506.14,-113.6C619.45,-105.84 854.59,-89.73 977,-81.34"/>
<polygon fill="#6b7280" stroke="#6b7280" points="977.32,-84.82 987.06,-80.65 976.84,-77.84 977.32,-84.82"/>
</g>
<!-- Smoke&#45;&gt;APIGW -->
<g id="edge13" class="edge">
<title>Smoke&#45;&gt;APIGW</title>
<path fill="none" stroke="#6b7280" stroke-dasharray="1,5" d="M838.3,-320.54C854.89,-316.23 872.47,-311.01 888.38,-305 933.61,-287.91 982.59,-261.92 1015.64,-243.18"/>
<polygon fill="#6b7280" stroke="#6b7280" points="1017.57,-246.1 1024.52,-238.1 1014.1,-240.03 1017.57,-246.1"/>
<text text-anchor="middle" x="933.88" y="-302" font-family="Inter, Helvetica, Arial" font-size="10.00">health checks</text>
</g>
<!-- APIGW&#45;&gt;Lambda -->
<g id="edge9" class="edge">
<title>APIGW&#45;&gt;Lambda</title>
<path fill="none" stroke="#6b7280" d="M1055.88,-201.59C1055.88,-193.94 1055.88,-184.89 1055.88,-176.43"/>
<polygon fill="#6b7280" stroke="#6b7280" points="1059.38,-176.17 1055.88,-166.17 1052.38,-176.17 1059.38,-176.17"/>
<text text-anchor="middle" x="1047.38" y="-181.5" font-family="Inter, Helvetica, Arial" font-size="10.00">invoke</text>
</g>
<!-- Logs -->
<g id="node12" class="node">
<title>Logs</title>
<path fill="#f7f7fb" stroke="#bfc3d9" d="M1381.38,-207C1381.38,-207 1234.38,-207 1234.38,-207 1228.38,-207 1222.38,-201 1222.38,-195 1222.38,-195 1222.38,-183 1222.38,-183 1222.38,-177 1228.38,-171 1234.38,-171 1234.38,-171 1381.38,-171 1381.38,-171 1387.38,-171 1393.38,-177 1393.38,-183 1393.38,-183 1393.38,-195 1393.38,-195 1393.38,-201 1387.38,-207 1381.38,-207"/>
<text text-anchor="middle" x="1307.88" y="-192.4" font-family="Inter, Helvetica, Arial" font-size="12.00">Logs</text>
<text text-anchor="middle" x="1307.88" y="-179.4" font-family="Inter, Helvetica, Arial" font-size="12.00">(e.g., CloudWatch emulation)</text>
</g>
<!-- APIGW&#45;&gt;Logs -->
<g id="edge15" class="edge">
<title>APIGW&#45;&gt;Logs</title>
<path fill="none" stroke="#6b7280" stroke-dasharray="1,5" d="M1099.01,-214.78C1129.86,-210.95 1172.96,-205.61 1211.93,-200.77"/>
<polygon fill="#6b7280" stroke="#6b7280" points="1212.77,-204.2 1222.26,-199.49 1211.91,-197.25 1212.77,-204.2"/>
<text text-anchor="middle" x="1170.38" y="-212" font-family="Inter, Helvetica, Arial" font-size="10.00">access logs</text>
</g>
<!-- Lambda&#45;&gt;DynamoDB -->
<g id="edge10" class="edge">
<title>Lambda&#45;&gt;DynamoDB</title>
<path fill="none" stroke="#6b7280" d="M1002.12,-129.87C960.83,-112.95 914.58,-85.55 938.38,-53.5 954.01,-32.45 981.76,-23.43 1006.37,-19.74"/>
<polygon fill="#6b7280" stroke="#6b7280" points="1006.83,-23.21 1016.32,-18.51 1005.97,-16.27 1006.83,-23.21"/>
<text text-anchor="middle" x="933.88" y="-56.5" font-family="Inter, Helvetica, Arial" font-size="10.00">CRUD</text>
</g>
<!-- Lambda&#45;&gt;S3 -->
<g id="edge11" class="edge">
<title>Lambda&#45;&gt;S3</title>
<path fill="none" stroke="#6b7280" d="M1055.88,-129.59C1055.88,-121.94 1055.88,-112.89 1055.88,-104.43"/>
<polygon fill="#6b7280" stroke="#6b7280" points="1059.38,-104.17 1055.88,-94.17 1052.38,-104.17 1059.38,-104.17"/>
<text text-anchor="middle" x="1047.38" y="-109.5" font-family="Inter, Helvetica, Arial" font-size="10.00">get/put</text>
</g>
<!-- Lambda&#45;&gt;Logs -->
<g id="edge14" class="edge">
<title>Lambda&#45;&gt;Logs</title>
<path fill="none" stroke="#6b7280" stroke-dasharray="1,5" d="M1113.92,-157.35C1142.92,-162.11 1178.92,-168.01 1211.94,-173.43"/>
<polygon fill="#6b7280" stroke="#6b7280" points="1211.65,-176.93 1222.08,-175.09 1212.78,-170.02 1211.65,-176.93"/>
<text text-anchor="middle" x="1170.38" y="-173" font-family="Inter, Helvetica, Arial" font-size="10.00">function logs</text>
</g>
<!-- Metrics -->
<g id="node13" class="node">
<title>Metrics</title>
<path fill="#f7f7fb" stroke="#bfc3d9" d="M1646.38,-207C1646.38,-207 1551.38,-207 1551.38,-207 1545.38,-207 1539.38,-201 1539.38,-195 1539.38,-195 1539.38,-183 1539.38,-183 1539.38,-177 1545.38,-171 1551.38,-171 1551.38,-171 1646.38,-171 1646.38,-171 1652.38,-171 1658.38,-177 1658.38,-183 1658.38,-183 1658.38,-195 1658.38,-195 1658.38,-201 1652.38,-207 1646.38,-207"/>
<text text-anchor="middle" x="1598.88" y="-192.4" font-family="Inter, Helvetica, Arial" font-size="12.00">Metrics / Traces</text>
<text text-anchor="middle" x="1598.88" y="-179.4" font-family="Inter, Helvetica, Arial" font-size="12.00">(optional exporters)</text>
</g>
<!-- Logs&#45;&gt;Metrics -->
<g id="edge16" class="edge">
<title>Logs&#45;&gt;Metrics</title>
<path fill="none" stroke="#6b7280" stroke-dasharray="1,5" d="M1393.64,-189C1436.78,-189 1488.55,-189 1529.17,-189"/>
<polygon fill="#6b7280" stroke="#6b7280" points="1529.25,-192.5 1539.25,-189 1529.25,-185.5 1529.25,-192.5"/>
<text text-anchor="middle" x="1466.38" y="-192" font-family="Inter, Helvetica, Arial" font-size="10.00">derived metrics (optional)</text>
</g>
<!-- Client -->
<g id="node14" class="node">
<title>Client</title>
<ellipse fill="#eef2ff" stroke="#bfc3d9" cx="770.19" cy="-249" rx="110.38" ry="18"/>
<text text-anchor="middle" x="770.19" y="-245.9" font-family="Inter, Helvetica, Arial" font-size="12.00">Client (curl, browser, Postman)</text>
</g>
<!-- Client&#45;&gt;APIGW -->
<g id="edge8" class="edge">
<title>Client&#45;&gt;APIGW</title>
<path fill="none" stroke="#6b7280" d="M864.08,-239.5C910.07,-234.8 963.87,-229.3 1002.6,-225.34"/>
<polygon fill="#6b7280" stroke="#6b7280" points="1003.02,-228.82 1012.61,-224.32 1002.31,-221.86 1003.02,-228.82"/>
<text text-anchor="middle" x="933.88" y="-238" font-family="Inter, Helvetica, Arial" font-size="10.00">HTTPS (invoke)</text>
</g>
</g>
</svg>
